# xmcd
#
# Track frame offsets: 
#        150
#        21553
#        37076
#        54041
#        74900
#        105463
#        125925
#        152977
#        169796
#        183982
#
# Disc length: 2739 seconds
#
# Revision: 0
# Processed by: cddbd v1.5.2PL0 Copyright (c) Steve Scherf et al.
# Submitted via: ExactAudioCopy v1.3
#
DISCID=920ab10a
DTITLE=Fiona Boyes and The Fortune Tellers - Live In Atlanta
DYEAR=2003
DGENRE=Blues Rock
TTITLE0=I'll Be Your Fool
TTITLE1=Ten Foot Tall (and Bullet Proof)
TTITLE2=Women Be Wise
TTITLE3=Stranger In Your Eyes
TTITLE4=Love Changing Blues
TTITLE5=Sailing
TTITLE6=Run Here
TTITLE7=Travelling Mood
TTITLE8=My Baby Cooks
TTITLE9=Ember
EXTD=
EXTT0=
EXTT1=
EXTT2=
EXTT3=
EXTT4=
EXTT5=
EXTT6=
EXTT7=
EXTT8=
EXTT9=
PLAYORDER=
